<?xml version="1.0" standalone="no"?>
<!DOCTYPE svg PUBLIC "-//W3C//DTD SVG 1.1//EN" "http://www.w3.org/Graphics/SVG/1.1/DTD/svg11.dtd" >
<svg xmlns="http://www.w3.org/2000/svg" xmlns:svg="http://www.w3.org/2000/svg" xmlns:xlink="http://www.w3.org/1999/xlink" viewBox="0 0 1024 1024"><path d="M147 931Q68 916 160 907Q95 898 206.5 891.5Q158 885 275 882L304 880V768Q224 727 302 684V586L236 585Q116 583 181 580Q86 577 162 570Q74 559 154 550Q74 549 154.5 543.5Q75 538 166 527Q93 520 187.5 517Q122 514 239 514H302V437H277Q179 435 244.5 427Q150 419 230 408Q150 405 233 398.5Q156 392 241 387Q165 376 258.5 373.5Q192 371 298 371Q236 371 340 372Q286 371 384 371Q331 371 424 373.5Q357 376 441 388Q368 397 448.5 401.5Q369 406 449 408Q369 414 446 421Q361 430 433 434.5Q345 439 405 441L373 444L376 511H419Q363 511 455.5 513.5Q388 516 475 523Q410 537 490 549Q410 557 478 569Q386 581 418 585L371 586L374 721Q294 779 376 817.5Q298 856 380 860Q301 861 384 861Q308 861 400 858.5Q332 856 434 851Q385 843 484 843Q412 843 505 846Q438 849 520 871Q441 876 521 880Q441 904 477.5 919Q354 934 277 955Q125 964 194.5 964.5Q104 965 182 965Q85 965 158 957Q67 947 147 933Q67 932 147 931ZM599 564Q528 550 648 550Q586 550 713.5 549.5Q681 549 817 549L947 550V639Q867 685 944 708.5Q861 732 938 738Q854 743 903.5 745Q793 747 776 747L625 745L610 727Q523 716 599.5 698Q516 680 594 639Q513 621 593 606Q513 574 599 564ZM553 291Q476 241 559.5 223Q483 205 571 201Q500 195 589 195Q515 195 606 199Q537 203 623 219Q545 226 625 243V280L623 325H725V241Q645 187 728 169Q651 151 738 147Q671 139 761 139Q682 139 768 139.5Q694 140 785 151Q712 158 794 177Q716 196 796 244L797 327L914 324V277Q834 259 916 242Q838 225 920 217Q848 198 944 198Q868 198 962.5 203Q897 208 988 241Q910 252 992.5 273.5Q915 295 999 316Q920 332 1000 344Q920 356 998.5 366Q917 376 990 383Q908 394 953 396.5Q838 399 770 403L562 406L554 390Q471 383 551 358.5Q471 334 553 291ZM553 916Q476 916 559 912.5Q482 909 563 903Q483 894 571.5 892Q500 890 594 890Q525 890 621 891Q564 891 660.5 890Q597 889 677 887Q597 885 672.5 873.5Q588 862 661 847Q570 822 649.5 817Q569 812 649 811Q569 803 655 795Q589 778 685 778Q618 778 721.5 794.5Q665 811 749 860V883H788Q732 883 819 881.5Q746 880 826 874Q746 873 826 871Q748 858 839.5 832Q771 806 864 792Q794 780 887 780Q808 780 896 780.5Q824 781 913 793Q843 807 923 820Q843 821 922.5 828Q842 835 911 858Q825 867 904 872.5Q823 878 903 881Q823 884 904 885Q825 887 912.5 887.5Q840 888 924 888Q851 888 940 887Q872 886 961 886Q899 886 990 891.5Q921 897 1001 914Q921 916 1001 919Q922 924 1002 928Q922 949 972 955Q862 961 835 961Q726 961 772 961Q635 962 674 962Q554 962 599.5 960.5Q485 959 563 954Q474 943 551.5 934.5Q469 926 549 923Q469 917 553 916ZM103 452Q26 433 128 406Q60 390 156.5 366.5Q93 343 185 322Q150 250 252 218.5Q194 187 286 172Q219 158 304.5 156.5Q230 155 313 155Q239 155 328 158Q266 162 370 180Q314 198 434 235Q374 253 472 269.5Q410 286 499 291Q433 304 514.5 313.5Q436 323 516 327Q436 339 509 352Q421 366 482 366Q401 366 470 365.5Q379 365 448 351Q350 325 385 283Q260 241 329 235Q246 235 322.5 239Q239 243 317 246Q233 252 307 263.5Q221 275 293 288Q204 300 266 327Q168 354 230 383Q102 460 162.5 477Q63 494 131 494Q41 494 112 484Q22 474 102 461Q22 456 103 452ZM531 475Q453 469 538 462Q460 453 578.5 451.5Q537 450 763 450Q784 450 923.5 451.5Q903 453 990 455Q922 463 1002 479Q922 481 1001.5 490.5Q921 500 985 514Q897 523 944 525Q831 527 781 527Q550 525 582.5 519Q455 513 533 493Q450 486 530 480Q450 477 531 475ZM670 653L673 682H869L875 658Q797 648 877.5 638Q798 628 878 622Q798 621 878 621Q798 615 861 613.5Q764 612 776 612Q647 612 699 613.5Q591 615 670 617ZM396 785Q318 774 407 745Q332 725 418.5 705Q345 685 430 675Q356 660 441 654.5Q366 649 457 649Q406 651 491.5 668Q417 685 497 695Q417 714 486 739Q402 750 477.5 764.5Q393 779 472 790Q384 822 451 824.5Q358 827 435 827Q335 827 400 804Q316 799 396 791Q316 788 396 785ZM164 705Q89 694 174 692Q99 690 185 690Q110 690 196 691L220 693L241 754Q181 808 261.5 818.5Q182 829 262 830Q182 847 247 855Q154 864 224 864Q133 864 200 849.5Q107 835 171 775Q82 743 161.5 734.5Q81 726 161 723Q81 712 164 705Z" fill="black"></path></svg>