<?xml version="1.0" standalone="no"?>
<!DOCTYPE svg PUBLIC "-//W3C//DTD SVG 1.1//EN" "http://www.w3.org/Graphics/SVG/1.1/DTD/svg11.dtd" >
<svg xmlns="http://www.w3.org/2000/svg" xmlns:svg="http://www.w3.org/2000/svg" xmlns:xlink="http://www.w3.org/1999/xlink" viewBox="0 0 1024 1024"><path d="M107.0 891.0Q108.0 876.0 120.0 867.0Q135.0 858.0 166.5 851.5Q198.0 845.0 235.0 842.0L264.0 840.0V728.0Q264.0 687.0 262.0 644.0V546.0L196.0 545.0Q156.0 543.0 141.0 540.0Q126.0 537.0 122.0 530.0Q114.0 519.0 114.0 510.0Q114.0 509.0 114.5 503.5Q115.0 498.0 126.0 487.0Q133.0 480.0 147.5 477.0Q162.0 474.0 199.0 474.0H262.0V397.0H237.0Q219.0 395.0 204.5 387.0Q190.0 379.0 190.0 368.0Q190.0 365.0 193.0 358.5Q196.0 352.0 201.0 347.0Q205.0 336.0 218.5 333.5Q232.0 331.0 258.0 331.0Q276.0 331.0 300.0 332.0Q326.0 331.0 344.0 331.0Q371.0 331.0 384.0 333.5Q397.0 336.0 401.0 348.0Q408.0 357.0 408.5 361.5Q409.0 366.0 409.0 368.0Q409.0 374.0 406.0 381.0Q401.0 390.0 393.0 394.5Q385.0 399.0 365.0 401.0L333.0 404.0L336.0 471.0H379.0Q403.0 471.0 415.5 473.5Q428.0 476.0 435.0 483.0Q450.0 497.0 450.0 509.0Q450.0 517.0 438.0 529.0Q426.0 541.0 378.0 545.0L331.0 546.0L334.0 681.0Q334.0 739.0 336.0 777.5Q338.0 816.0 340.0 820.0Q341.0 821.0 344.0 821.0Q348.0 821.0 360.0 818.5Q372.0 816.0 394.0 811.0Q425.0 803.0 444.0 803.0Q452.0 803.0 465.0 806.0Q478.0 809.0 480.0 831.0Q481.0 836.0 481.0 840.0Q481.0 864.0 437.5 879.0Q394.0 894.0 237.0 915.0Q165.0 924.0 154.5 924.5Q144.0 925.0 142.0 925.0Q125.0 925.0 118.0 917.0Q107.0 907.0 107.0 893.0Q107.0 892.0 107.0 891.0ZM559.0 524.0Q568.0 510.0 608.0 510.0Q626.0 510.0 673.5 509.5Q721.0 509.0 777.0 509.0L907.0 510.0V599.0Q907.0 645.0 904.0 668.5Q901.0 692.0 898.0 698.0Q894.0 703.0 863.5 705.0Q833.0 707.0 736.0 707.0L585.0 705.0L570.0 687.0Q563.0 676.0 559.5 658.0Q556.0 640.0 554.0 599.0Q553.0 581.0 553.0 566.0Q553.0 534.0 559.0 524.0ZM513.0 251.0Q516.0 201.0 519.5 183.0Q523.0 165.0 531.0 161.0Q540.0 155.0 549.0 155.0Q555.0 155.0 566.0 159.0Q577.0 163.0 583.0 179.0Q585.0 186.0 585.0 203.0V240.0L583.0 285.0H685.0V201.0Q685.0 147.0 688.0 129.0Q691.0 111.0 698.0 107.0Q711.0 99.0 721.0 99.0Q722.0 99.0 728.0 99.5Q734.0 100.0 745.0 111.0Q752.0 118.0 754.0 137.0Q756.0 156.0 756.0 204.0L757.0 287.0L874.0 284.0V237.0Q874.0 219.0 876.0 202.0Q878.0 185.0 880.0 177.0Q888.0 158.0 904.0 158.0Q908.0 158.0 922.5 163.0Q937.0 168.0 948.0 201.0Q950.0 212.0 952.5 233.5Q955.0 255.0 959.0 276.0Q960.0 292.0 960.0 304.0Q960.0 316.0 958.5 326.0Q957.0 336.0 950.0 343.0Q948.0 354.0 913.0 356.5Q878.0 359.0 730.0 363.0L522.0 366.0L514.0 350.0Q511.0 343.0 511.0 318.5Q511.0 294.0 513.0 251.0ZM513.0 876.0Q516.0 876.0 519.0 872.5Q522.0 869.0 523.0 863.0Q523.0 854.0 531.5 852.0Q540.0 850.0 554.0 850.0Q565.0 850.0 581.0 851.0Q604.0 851.0 620.5 850.0Q637.0 849.0 637.0 847.0Q637.0 845.0 632.5 833.5Q628.0 822.0 621.0 807.0Q610.0 782.0 609.5 777.0Q609.0 772.0 609.0 771.0Q609.0 763.0 615.0 755.0Q629.0 738.0 645.0 738.0Q658.0 738.0 681.5 754.5Q705.0 771.0 709.0 820.0V843.0H748.0Q772.0 843.0 779.0 841.5Q786.0 840.0 786.0 834.0Q786.0 833.0 786.0 831.0Q788.0 818.0 799.5 792.0Q811.0 766.0 824.0 752.0Q834.0 740.0 847.0 740.0Q848.0 740.0 856.0 740.5Q864.0 741.0 873.0 753.0Q883.0 767.0 883.0 780.0Q883.0 781.0 882.5 788.0Q882.0 795.0 871.0 818.0Q865.0 827.0 864.0 832.5Q863.0 838.0 863.0 841.0Q863.0 844.0 864.0 845.0Q865.0 847.0 872.5 847.5Q880.0 848.0 884.0 848.0Q891.0 848.0 900.0 847.0Q912.0 846.0 921.0 846.0Q939.0 846.0 950.0 851.5Q961.0 857.0 961.0 874.0Q961.0 876.0 961.0 879.0Q962.0 884.0 962.0 888.0Q962.0 909.0 932.0 915.0Q902.0 921.0 795.0 921.0Q766.0 921.0 732.0 921.0Q675.0 922.0 634.0 922.0Q594.0 922.0 559.5 920.5Q525.0 919.0 523.0 914.0Q514.0 903.0 511.5 894.5Q509.0 886.0 509.0 883.0Q509.0 877.0 513.0 876.0ZM63.0 412.0Q66.0 393.0 88.0 366.0Q100.0 350.0 116.5 326.5Q133.0 303.0 145.0 282.0Q190.0 210.0 212.0 178.5Q234.0 147.0 246.0 132.0Q259.0 118.0 264.5 116.5Q270.0 115.0 273.0 115.0Q279.0 115.0 288.0 118.0Q306.0 122.0 330.0 140.0Q354.0 158.0 394.0 195.0Q414.0 213.0 432.0 229.5Q450.0 246.0 459.0 251.0Q473.0 264.0 474.5 273.5Q476.0 283.0 476.0 287.0Q476.0 299.0 469.0 312.0Q461.0 326.0 442.0 326.0Q441.0 326.0 430.0 325.5Q419.0 325.0 408.0 311.0Q390.0 285.0 345.0 243.0Q300.0 201.0 289.0 195.0Q286.0 195.0 282.5 199.0Q279.0 203.0 277.0 206.0Q273.0 212.0 267.0 223.5Q261.0 235.0 253.0 248.0Q244.0 260.0 226.0 287.0Q208.0 314.0 190.0 343.0Q142.0 420.0 122.5 437.0Q103.0 454.0 91.0 454.0Q81.0 454.0 72.0 444.0Q62.0 434.0 62.0 421.0Q62.0 416.0 63.0 412.0ZM491.0 435.0Q493.0 429.0 498.0 422.0Q500.0 413.0 538.5 411.5Q577.0 410.0 723.0 410.0Q824.0 410.0 883.5 411.5Q943.0 413.0 950.0 415.0Q962.0 423.0 962.0 439.0Q962.0 441.0 961.5 450.5Q961.0 460.0 945.0 474.0Q937.0 483.0 904.0 485.0Q871.0 487.0 741.0 487.0Q590.0 485.0 542.5 479.0Q495.0 473.0 493.0 453.0Q490.0 446.0 490.0 440.0Q490.0 437.0 491.0 435.0ZM630.0 613.0 633.0 642.0H829.0L835.0 618.0Q837.0 608.0 837.5 598.0Q838.0 588.0 838.0 582.0Q838.0 581.0 838.0 581.0Q838.0 575.0 821.0 573.5Q804.0 572.0 736.0 572.0Q687.0 572.0 659.0 573.5Q631.0 575.0 630.0 577.0ZM356.0 745.0Q358.0 734.0 367.0 705.0Q372.0 685.0 378.5 665.0Q385.0 645.0 390.0 635.0Q396.0 620.0 401.0 614.5Q406.0 609.0 417.0 609.0Q446.0 611.0 451.5 628.0Q457.0 645.0 457.0 655.0Q457.0 674.0 446.0 699.0Q442.0 710.0 437.5 724.5Q433.0 739.0 432.0 750.0Q424.0 782.0 411.0 784.5Q398.0 787.0 395.0 787.0Q375.0 787.0 360.0 764.0Q356.0 759.0 356.0 751.0Q356.0 748.0 356.0 745.0ZM124.0 665.0Q129.0 654.0 134.0 652.0Q139.0 650.0 145.0 650.0Q150.0 650.0 156.0 651.0L180.0 653.0L201.0 714.0Q221.0 768.0 221.5 778.5Q222.0 789.0 222.0 790.0Q222.0 807.0 207.0 815.0Q194.0 824.0 184.0 824.0Q173.0 824.0 160.0 809.5Q147.0 795.0 131.0 735.0Q122.0 703.0 121.5 694.5Q121.0 686.0 121.0 683.0Q121.0 672.0 124.0 665.0Z" fill="black"></path></svg>